<mxfile host="app.diagrams.net" modified="2023-04-06T08:55:34.161Z" agent="Mozilla/5.0 (X11; Linux x86_64) AppleWebKit/537.36 (KHTML, like Gecko) Chrome/110.0.0.0 Safari/537.36" etag="HBINHf6fxQDPSN9vR1fz" version="21.1.2" type="github">
  <diagram name="Page-1" id="4CPgPNE-6awET73HkTQn">
    <mxGraphModel dx="1434" dy="834" grid="1" gridSize="10" guides="1" tooltips="1" connect="1" arrows="1" fold="1" page="1" pageScale="1" pageWidth="1100" pageHeight="800" math="0" shadow="0">
      <root>
        <mxCell id="0" />
        <mxCell id="1" parent="0" />
        <mxCell id="8cWyVWaOQBvI74vChej5-1" value="Request" style="rounded=1;whiteSpace=wrap;html=1;fontSize=15;" vertex="1" parent="1">
          <mxGeometry x="520" y="120" width="120" height="60" as="geometry" />
        </mxCell>
        <mxCell id="8cWyVWaOQBvI74vChej5-2" value="WP" style="text;html=1;strokeColor=#006EAF;fillColor=#1ba1e2;align=center;verticalAlign=middle;whiteSpace=wrap;rounded=0;fontColor=#ffffff;fontSize=10;" vertex="1" parent="1">
          <mxGeometry x="526" y="125" width="20" height="12" as="geometry" />
        </mxCell>
        <mxCell id="8cWyVWaOQBvI74vChej5-3" value="Request" style="rounded=1;whiteSpace=wrap;html=1;fontSize=15;" vertex="1" parent="1">
          <mxGeometry x="200" y="120" width="120" height="60" as="geometry" />
        </mxCell>
        <mxCell id="8cWyVWaOQBvI74vChej5-4" value="SSP" style="text;html=1;strokeColor=#006EAF;fillColor=#1ba1e2;align=center;verticalAlign=middle;whiteSpace=wrap;rounded=0;fontColor=#ffffff;fontSize=10;" vertex="1" parent="1">
          <mxGeometry x="206" y="125" width="20" height="12" as="geometry" />
        </mxCell>
      </root>
    </mxGraphModel>
  </diagram>
</mxfile>
